<?xml version="1.0" encoding="UTF-8"?>
<svg id="Layer_2" data-name="Layer 2" xmlns="http://www.w3.org/2000/svg" viewBox="0 0 272.58 174.54">
  <defs>
    <style>
      .cls-1 {
        font-family: BootcampRegular, Bootcamp;
        font-size: 31px;
      }

      .cls-1, .cls-2 {
        fill: #000;
      }

      .cls-3 {
        fill: #656d4a;
      }

      .cls-3, .cls-2 {
        stroke-width: 0px;
      }
    </style>
  </defs>
  <g id="Layer_1-2" data-name="Layer 1">
    <g>
      <path class="cls-2" d="M34.92,30.68v-9.24h-10.31v8.17c0,2.18.77,4.3,2.18,5.98l16.91,20.14c1.41,1.68,2.18,3.79,2.18,5.98v17.36c0,3.21-2.6,5.81-5.81,5.81h-20.59c-3.21,0-5.81-2.6-5.81-5.81v-12.88h10.95v7.74h10.31v-8.09c0-2.18-.77-4.3-2.17-5.97l-16.92-20.19c-1.4-1.67-2.17-3.79-2.17-5.97v-17.4c0-3.21,2.6-5.81,5.81-5.81h20.59c3.21,0,5.81,2.6,5.81,5.81v14.38h-10.95Z"/>
      <path class="cls-2" d="M71.06,50.92l4.67-40.44h10.96l-10.63,74.39h-10.95L54.47,10.48h10.95l4.67,40.44"/>
      <path class="cls-2" d="M123.24,84.87h-10.95l-2.35-16.43h-5.61l-2.35,16.43h-10.95l10.63-74.39h10.95l10.63,74.39ZM106.71,43.47l-1.76,14.02h0s4.37,0,4.37,0l-1.76-14.03"/>
      <path class="cls-2" d="M160.36,47.68c3.21,0,5.81,2.6,5.81,5.81v31.38h-10.95v-31.72h-10.31v31.72h-10.95V10.48h26.74v.07c3.05.18,5.48,2.65,5.48,5.74v25.57c0,3.21-2.6,5.81-5.82,5.81ZM155.22,21.43h-10.31v20.77h10.31v-20.77Z"/>
      <path class="cls-2" d="M211.23,16.29v62.77c0,3.21-2.6,5.81-5.81,5.81h-20.59c-3.21,0-5.81-2.6-5.81-5.81V16.29c0-3.21,2.6-5.81,5.81-5.81h20.59c3.21,0,5.81,2.6,5.81,5.81ZM200.28,21.43h-10.31v52.49h10.31V21.43Z"/>
      <path class="cls-3" d="M264.14,0v35.56h-10.96v-14.45h-20.4v52.52h20.4v-9.19c0-5.71-4.65-10.36-10.36-10.36,0,0,0,0,0,0v-10.96c11.76,0,21.32,9.56,21.32,21.32v20.15s-42.32,0-42.32,0V10.15h23.04-.02s-12.51-.01,2.28-.01c9.18,0,13.06-5.24,14.95-10.14"/>
    </g>
    <text class="cls-1" transform="translate(10.73 114.91)"><tspan x="0" y="0">PIONEERING SAFE DEMINING</tspan></text>
  </g>
</svg>