<?xml version="1.0" encoding="UTF-8"?>
<svg id="Layer_2" data-name="Layer 2" xmlns="http://www.w3.org/2000/svg" viewBox="0 0 272.58 174.54">
  <defs>
    <style>
      .cls-1 {
        fill: #656d4a;
      }

      .cls-1, .cls-2 {
        stroke-width: 0px;
      }

      .cls-2 {
        fill: #000;
      }
    </style>
  </defs>
  <g id="Layer_1-2" data-name="Layer 1">
    <g>
      <path class="cls-2" d="M34.92,30.68v-9.24h-10.31v8.17c0,2.18.77,4.3,2.18,5.98l16.91,20.14c1.41,1.68,2.18,3.79,2.18,5.98v17.36c0,3.21-2.6,5.81-5.81,5.81h-20.59c-3.21,0-5.81-2.6-5.81-5.81v-12.88h10.95v7.74h10.31v-8.09c0-2.18-.77-4.3-2.17-5.97l-16.92-20.19c-1.4-1.67-2.17-3.79-2.17-5.97v-17.4c0-3.21,2.6-5.81,5.81-5.81h20.59c3.21,0,5.81,2.6,5.81,5.81v14.38h-10.95Z"/>
      <path class="cls-2" d="M71.06,50.92l4.67-40.44h10.96l-10.63,74.39h-10.95L54.47,10.48h10.95l4.67,40.44"/>
      <path class="cls-2" d="M123.24,84.87h-10.95l-2.35-16.43h-5.61l-2.35,16.43h-10.95l10.63-74.39h10.95l10.63,74.39ZM106.71,43.47l-1.76,14.02h0s4.37,0,4.37,0l-1.76-14.03"/>
      <path class="cls-2" d="M160.36,47.68c3.21,0,5.81,2.6,5.81,5.81v31.38h-10.95v-31.72h-10.31v31.72h-10.95V10.48h26.74v.07c3.05.18,5.48,2.65,5.48,5.74v25.57c0,3.21-2.6,5.81-5.82,5.81ZM155.22,21.43h-10.31v20.77h10.31v-20.77Z"/>
      <path class="cls-2" d="M211.23,16.29v62.77c0,3.21-2.6,5.81-5.81,5.81h-20.59c-3.21,0-5.81-2.6-5.81-5.81V16.29c0-3.21,2.6-5.81,5.81-5.81h20.59c3.21,0,5.81,2.6,5.81,5.81ZM200.28,21.43h-10.31v52.49h10.31V21.43Z"/>
      <path class="cls-1" d="M264.14,0v35.56h-10.96v-14.45h-20.4v52.52h20.4v-9.19c0-5.71-4.65-10.36-10.36-10.36,0,0,0,0,0,0v-10.96c11.76,0,21.32,9.56,21.32,21.32v20.15s-42.32,0-42.32,0V10.15h23.04-.02s-12.51-.01,2.28-.01c9.18,0,13.06-5.24,14.95-10.14"/>
    </g>
    <g>
      <path class="cls-2" d="M21.31,94.9v9.06c0,.94-.76,1.7-1.7,1.7h-4.51v9.25h-3.2v-21.7h7.7c.94,0,1.7.76,1.7,1.7ZM18.11,96.4h-3.01v6.06h3.01v-6.06Z"/>
      <path class="cls-2" d="M23.07,114.91v-21.7h3.2v21.7h-3.2Z"/>
      <path class="cls-2" d="M38.04,94.9v18.31c0,.94-.76,1.7-1.7,1.7h-6.01c-.94,0-1.7-.76-1.7-1.7v-18.31c0-.94.76-1.7,1.7-1.7h6.01c.94,0,1.7.76,1.7,1.7ZM34.85,96.4h-3.01v15.31h3.01v-15.31Z"/>
      <path class="cls-2" d="M49.82,93.2v21.7h-3.2l-2.83-10.85-.18-1.92v12.77h-3.2v-21.7h3.2l2.83,10.85.18,1.92v-12.77h3.2Z"/>
      <path class="cls-2" d="M55.4,96.4v6.06h3.01v3.2h-3.01v6.06h6.2v3.19h-9.4v-21.7h9.4v3.2h-6.2Z"/>
      <path class="cls-2" d="M67.18,96.4v6.06h3.01v3.2h-3.01v6.06h6.2v3.19h-9.4v-21.7h9.4v3.2h-6.2Z"/>
      <path class="cls-2" d="M83.47,104.05c.94,0,1.7.76,1.7,1.7v9.16h-3.2v-9.25h-3.01v9.25h-3.2v-21.7h7.8v.02c.89.05,1.6.77,1.6,1.68v7.46c0,.94-.76,1.7-1.7,1.7ZM81.97,96.4h-3.01v6.06h3.01v-6.06Z"/>
      <path class="cls-2" d="M87.54,114.91v-21.7h3.2v21.7h-3.2Z"/>
      <path class="cls-2" d="M102.52,93.2v21.7h-3.2l-2.83-10.85-.18-1.92v12.77h-3.2v-21.7h3.2l2.83,10.85.18,1.92v-12.77h3.2Z"/>
      <path class="cls-2" d="M111.11,98v-1.6h-3.01v15.31h2.99v-6.06h-1.5v-3.2h4.7v10.75c0,.94-.76,1.7-1.7,1.7h-5.98c-.94,0-1.7-.76-1.7-1.7v-18.31c0-.94.76-1.7,1.7-1.7h6.01c.94,0,1.7.76,1.7,1.7v3.1h-3.2Z"/>
      <path class="cls-2" d="M131.01,98v-1.6h-3.01v2.38c0,.64.22,1.25.63,1.74l4.93,5.88c.41.49.63,1.11.63,1.74v5.06c0,.94-.76,1.7-1.7,1.7h-6.01c-.94,0-1.7-.76-1.7-1.7v-3.1h3.2v1.6h3.01v-2.36c0-.64-.22-1.25-.63-1.74l-4.94-5.89c-.41-.49-.63-1.1-.63-1.74v-5.08c0-.94.76-1.7,1.7-1.7h6.01c.94,0,1.7.76,1.7,1.7v3.1h-3.2Z"/>
      <path class="cls-2" d="M144.74,114.91h-3.19l-.69-4.79h-1.64l-.69,4.79h-3.2l3.1-21.7h3.2l3.1,21.7ZM139.41,106.92h1.27l-.51-4.09-.12-2.83-.12,2.84-.51,4.09h0Z"/>
      <path class="cls-2" d="M149.7,96.4v6.06h3.01v3.2h-3.01v9.25h-3.2v-21.7h9.4v3.2h-6.2Z"/>
      <path class="cls-2" d="M160.86,96.4v6.06h3.01v3.2h-3.01v6.06h6.2v3.19h-9.4v-21.7h9.4v3.2h-6.2Z"/>
      <path class="cls-2" d="M187.59,94.9v18.31c0,.94-.76,1.7-1.7,1.7h-7.7v-21.7h7.7c.94,0,1.7.76,1.7,1.7ZM184.39,96.4h-3.01v15.31h3.01v-15.31Z"/>
      <path class="cls-2" d="M193.16,96.4v6.06h3.01v3.2h-3.01v6.06h6.21v3.19h-9.4v-21.7h9.4v3.2h-6.21Z"/>
      <path class="cls-2" d="M214.15,93.2v21.7h-3.2v-12.77l-.18,1.92-2.83,10.85-2.83-10.85-.18-1.92v12.77h-3.2v-21.7h3.2l2.83,10.85.18,1.92.18-1.92,2.83-10.85h3.2Z"/>
      <path class="cls-2" d="M216.53,114.91v-21.7h3.2v21.7h-3.2Z"/>
      <path class="cls-2" d="M231.51,93.2v21.7h-3.2l-2.83-10.85-.18-1.92v12.77h-3.2v-21.7h3.2l2.83,10.85.18,1.92v-12.77h3.2Z"/>
      <path class="cls-2" d="M233.89,114.91v-21.7h3.2v21.7h-3.2Z"/>
      <path class="cls-2" d="M248.87,93.2v21.7h-3.2l-2.83-10.85-.18-1.92v12.77h-3.2v-21.7h3.2l2.83,10.85.18,1.92v-12.77h3.2Z"/>
      <path class="cls-2" d="M257.46,98v-1.6h-3.01v15.31h2.99v-6.06h-1.5v-3.2h4.7v10.75c0,.94-.76,1.7-1.7,1.7h-5.99c-.94,0-1.7-.76-1.7-1.7v-18.31c0-.94.76-1.7,1.7-1.7h6.01c.94,0,1.7.76,1.7,1.7v3.1h-3.2Z"/>
    </g>
  </g>
</svg>